HIERARCHY
ROOT SpineBase
{
  OFFSET 0.000000 0.000000 0.000000
  CHANNELS 6 Xposition Yposition Zposition Zrotation Xrotation Yrotation
  JOINT SpineMid
  {
    OFFSET 0.000000 29.656697 0.000000
    CHANNELS 3 Zrotation Xrotation Yrotation
    JOINT SpineShoulder
    {
      OFFSET -0.022505 22.055045 -0.582239
      CHANNELS 3 Zrotation Xrotation Yrotation
      JOINT Neck
      {
        OFFSET -0.028715 7.294543 -0.451756
        CHANNELS 3 Zrotation Xrotation Yrotation
        JOINT Head
        {
          OFFSET -2.076777 12.303106 -0.691550
          CHANNELS 3 Zrotation Xrotation Yrotation
          End Site
          {
            OFFSET 0 0 0
          }
        }
      }
      JOINT ShoulderLeft
      {
        OFFSET -15.629494 -3.218982 5.982737
        CHANNELS 3 Zrotation Xrotation Yrotation
        JOINT ElbowLeft
        {
          OFFSET -4.270720 -26.602538 5.005518
          CHANNELS 3 Zrotation Xrotation Yrotation
          JOINT WristLeft
          {
            OFFSET -3.710755 -19.300668 -3.332690
            CHANNELS 3 Zrotation Xrotation Yrotation
            JOINT HandLeft
            {
              OFFSET 0.202174 -5.191252 -2.607998
              CHANNELS 3 Zrotation Xrotation Yrotation
              JOINT HandTipLeft
              {
                OFFSET -0.661811 -6.728903 -1.802510
                CHANNELS 3 Zrotation Xrotation Yrotation
                End Site
                {
                  OFFSET 0 0 0
                }
              }
              JOINT ThumbLeft
              {
                OFFSET 3.576968 -0.336266 -3.042743
                CHANNELS 3 Zrotation Xrotation Yrotation
                End Site
                {
                  OFFSET 0 0 0
                }
              }
            }
          }
        }
      }
      JOINT ShoulderRight
      {
        OFFSET 13.326047 -2.949892 -7.276587
        CHANNELS 3 Zrotation Xrotation Yrotation
        JOINT ElbowRight
        {
          OFFSET 5.412819 -21.248240 -2.832760
          CHANNELS 3 Zrotation Xrotation Yrotation
          JOINT WristRight
          {
            OFFSET 1.694177 -26.952962 -4.397944
            CHANNELS 3 Zrotation Xrotation Yrotation
            JOINT HandRight
            {
              OFFSET -1.333691 -7.552831 -2.612401
              CHANNELS 3 Zrotation Xrotation Yrotation
              JOINT HandTipRight
              {
                OFFSET -0.211267 -7.124584 -2.026995
                CHANNELS 3 Zrotation Xrotation Yrotation
                End Site
                {
                  OFFSET 0 0 0
                }
              }
              JOINT ThumbRight
              {
                OFFSET 2.309972 -0.357337 -2.580848
                CHANNELS 3 Zrotation Xrotation Yrotation
                End Site
                {
                  OFFSET 0 0 0
                }
              }
            }
          }
        }
      }
    }
  }
  JOINT HipLeft
  {
    OFFSET -7.138708 -0.079325 -0.861986
    CHANNELS 3 Zrotation Xrotation Yrotation
    JOINT KneeLeft
    {
      OFFSET -7.499890 -25.362095 4.793998
      CHANNELS 3 Zrotation Xrotation Yrotation
      JOINT AnkleLeft
      {
        OFFSET -1.453737 -39.719847 7.355225
        CHANNELS 3 Zrotation Xrotation Yrotation
        JOINT FootLeft
        {
          OFFSET -3.738767 -7.206645 -5.465136
          CHANNELS 3 Zrotation Xrotation Yrotation
          End Site
          {
            OFFSET 0 0 0
          }
        }
      }
    }
  }
  JOINT HipRight
  {
    OFFSET 6.558140 1.068385 -5.260809
    CHANNELS 3 Zrotation Xrotation Yrotation
    JOINT KneeRight
    {
      OFFSET 5.003867 -32.092410 5.032526
      CHANNELS 3 Zrotation Xrotation Yrotation
      JOINT AnkleRight
      {
        OFFSET 1.460228 -33.815052 9.044492
        CHANNELS 3 Zrotation Xrotation Yrotation
        JOINT FootRight
        {
          OFFSET -4.889580 -2.699531 -14.128271
          CHANNELS 3 Zrotation Xrotation Yrotation
          End Site
          {
            OFFSET 0 0 0
          }
        }
      }
    }
  }
}
MOTION
Frames: 5
Frame Time: 0.033333
32.709361 76.082867 372.808955 1.818560 4.641361 27.284124 0.199807 -0.496607 -27.271881 0.332849 -0.118304 0.127101 9.337997 9.377485 2.135948 0.000000 0.000000 0.000000 1.220156 2.917574 -0.666602 -2.681336 -8.591300 0.456877 -5.623525 -7.647238 1.682984 5.680982 10.347779 -2.861132 0.000000 0.000000 0.000000 0.000000 0.000000 0.000000 51.620305 71.644913 -21.504294 -16.183912 40.815488 -35.535564 -25.562723 -5.326138 -38.806124 -8.679302 -23.377758 -12.653062 0.000000 0.000000 0.000000 0.000000 0.000000 0.000000 2.998635 -1.884057 -27.439005 -3.602371 -8.205865 0.720595 -8.202657 20.997886 -2.612511 0.000000 0.000000 0.000000 2.545539 -5.818873 -25.820161 -4.849607 -2.870676 -0.701420 0.621045 -7.307681 7.188526 0.000000 0.000000 0.000000
32.703330 76.125715 372.636455 2.000005 4.691166 27.299626 0.186882 -0.506227 -27.290312 0.332961 -0.117769 0.133703 9.562511 9.672802 2.149610 0.000000 0.000000 0.000000 1.455368 2.689880 -0.560923 -3.011801 -8.973488 0.437579 -4.997347 -6.406442 1.338629 4.501669 13.174911 -2.566302 0.000000 0.000000 0.000000 0.000000 0.000000 0.000000 51.510803 71.691864 -21.564009 -16.235938 40.972832 -35.656796 -24.087386 -6.373695 -37.913271 -10.482859 -23.263367 -13.331236 0.000000 0.000000 0.000000 0.000000 0.000000 0.000000 2.722543 -1.905470 -27.453955 -3.469436 -8.092931 0.728701 -8.766223 21.265922 -2.319743 0.000000 0.000000 0.000000 2.236234 -5.943656 -25.889866 -4.780923 -2.863366 -0.655635 0.983507 -7.935572 6.673618 0.000000 0.000000 0.000000
32.729990 76.169325 372.514476 2.207092 4.707625 27.375048 0.172493 -0.474302 -27.370679 0.299919 -0.106735 0.136948 9.745418 9.969046 2.167367 0.000000 0.000000 0.000000 1.784532 2.535848 -0.454190 -3.381322 -9.235527 0.372779 -4.693930 -7.372154 1.018072 3.977747 13.798621 -2.210601 0.000000 0.000000 0.000000 0.000000 0.000000 0.000000 51.244168 71.906775 -21.520269 -15.782142 41.078366 -35.717622 -21.114132 -8.475561 -36.191335 -15.519760 -23.581963 -16.032774 0.000000 0.000000 0.000000 0.000000 0.000000 0.000000 2.469265 -1.580482 -27.658042 -3.255887 -8.417440 0.840156 -10.251596 24.049152 -2.091219 0.000000 0.000000 0.000000 1.775252 -6.015020 -26.062871 -4.570969 -2.686397 -0.575437 1.755419 -9.734243 6.247711 0.000000 0.000000 0.000000
32.698340 76.205149 372.424233 2.313146 4.694907 27.336389 0.197006 -0.422201 -27.334310 0.255299 -0.079611 0.135865 10.007023 10.193215 2.193734 0.000000 0.000000 0.000000 1.953546 2.200899 -0.354188 -3.544989 -9.172960 0.315664 -5.621062 -7.626885 1.386254 2.818802 15.186509 -1.810109 0.000000 0.000000 0.000000 0.000000 0.000000 0.000000 51.095352 72.024511 -21.454487 -16.106367 41.278122 -35.907954 -18.569532 -8.918128 -34.348143 -19.037349 -25.586423 -19.364510 0.000000 0.000000 0.000000 0.000000 0.000000 0.000000 2.420579 -1.294763 -27.721305 -3.050036 -8.874425 0.969459 -8.600770 20.163354 -1.994325 0.000000 0.000000 0.000000 1.538622 -6.106992 -26.080903 -4.426899 -2.521962 -0.508660 2.911172 -12.595793 5.813218 0.000000 0.000000 0.000000
32.658147 76.230857 372.426589 2.343983 4.661507 27.448411 0.228117 -0.361216 -27.447514 0.202937 -0.047584 0.131160 10.348322 10.350330 2.222563 0.000000 0.000000 0.000000 2.311641 2.184008 -0.287721 -3.820803 -9.247250 0.241197 -6.579240 -10.408880 1.598091 3.716827 19.839693 -2.360927 0.000000 0.000000 0.000000 0.000000 0.000000 0.000000 50.903972 72.212255 -21.308473 -16.035676 41.432580 -36.023286 -15.947908 -10.065214 -32.600102 -23.546828 -26.323263 -22.547790 0.000000 0.000000 0.000000 0.000000 0.000000 0.000000 2.284607 -1.034739 -27.937740 -2.681828 -9.101424 1.108845 -6.360297 14.368625 -1.579229 0.000000 0.000000 0.000000 1.361697 -6.205597 -26.243832 -4.301456 -2.305631 -0.449264 5.878156 -19.718907 5.851087 0.000000 0.000000 0.000000
